<?xml version="1.0" encoding="UTF-8"?>
<svg xmlns="http://www.w3.org/2000/svg" xmlns:xlink="http://www.w3.org/1999/xlink" viewBox="0 0 2615.71 2982.46">
  <defs>
    <style>
      .cls-1 {
        filter: url(#drop-shadow-1);
      }

      .cls-1, .cls-2 {
        fill: #d2eef8;
      }

      .cls-1, .cls-2, .cls-3, .cls-4 {
        stroke-width: 0px;
      }

      .cls-2 {
        filter: url(#drop-shadow-2);
      }

      .cls-3 {
        fill: #27459d;
      }

      .cls-4 {
        fill: #fff;
      }
    </style>
    <filter id="drop-shadow-1" filterUnits="userSpaceOnUse">
      <feOffset dx="25" dy="25"/>
      <feGaussianBlur result="blur" stdDeviation="5"/>
      <feFlood flood-color="#231f20" flood-opacity=".5"/>
      <feComposite in2="blur" operator="in"/>
      <feComposite in="SourceGraphic"/>
    </filter>
    <filter id="drop-shadow-2" filterUnits="userSpaceOnUse">
      <feOffset dx="25" dy="25"/>
      <feGaussianBlur result="blur-2" stdDeviation="5"/>
      <feFlood flood-color="#231f20" flood-opacity=".5"/>
      <feComposite in2="blur-2" operator="in"/>
      <feComposite in="SourceGraphic"/>
    </filter>
  </defs>
  <g id="Layer_2" data-name="Layer 2">
    <rect class="cls-1" x="946.11" y="356.76" width="1629.58" height="2585.55" rx="97" ry="97"/>
    <g>
      <rect class="cls-4" x="1136.62" y="1987.6" width="270.81" height="107.75" rx="39" ry="39"/>
      <rect class="cls-4" x="2114.37" y="1987.6" width="270.81" height="107.75" rx="39" ry="39"/>
      <rect class="cls-4" x="1462.54" y="1987.6" width="270.81" height="107.75" rx="39" ry="39"/>
      <rect class="cls-4" x="1788.45" y="1987.6" width="270.81" height="107.75" rx="39" ry="39"/>
      <path class="cls-4" d="m1042.51,1987.6h-96.4v107.75h96.4c21.54,0,39-17.46,39-39v-29.75c0-21.54-17.46-39-39-39Z"/>
      <path class="cls-4" d="m2575.69,1987.6h-96.4c-21.54,0-39,17.46-39,39v29.75c0,21.54,17.46,39,39,39h96.4v-107.75Z"/>
    </g>
    <path class="cls-3" d="m1206.74,638.8c-31.77,0-57.33,24.19-57.33,54.26v904.25c0,30.07,25.56,54.26,57.33,54.26h38.22c31.77,0,57.33-24.19,57.33-54.26v-904.25c0-30.07-25.56-54.26-57.33-54.26h-38.22Zm210.2,0c-21.02,0-38.22,16.28-38.22,36.17v940.42c0,19.89,17.2,36.17,38.22,36.17s38.22-16.28,38.22-36.17v-940.42c0-19.89-17.2-36.17-38.22-36.17Zm171.98,0c-31.77,0-57.33,24.19-57.33,54.26v904.25c0,30.07,25.56,54.26,57.33,54.26h38.22c31.77,0,57.33-24.19,57.33-54.26v-904.25c0-30.07-25.56-54.26-57.33-54.26h-38.22Zm229.31,0c-31.77,0-57.33,24.19-57.33,54.26v904.25c0,30.07,25.56,54.26,57.33,54.26h38.22c31.77,0,57.33-24.19,57.33-54.26v-904.25c0-30.07-25.56-54.26-57.33-54.26h-38.22Zm401.28,54.26v904.25c0,30.07,25.56,54.26,57.33,54.26h38.22c31.77,0,57.33-24.19,57.33-54.26v-904.25c0-30.07-25.56-54.26-57.33-54.26h-38.22c-31.77,0-57.33,24.19-57.33,54.26Zm-152.87-18.09v940.42c0,19.89,17.2,36.17,38.22,36.17s38.22-16.28,38.22-36.17v-940.42c0-19.89-17.2-36.17-38.22-36.17s-38.22,16.28-38.22,36.17Z"/>
  </g>
  <g id="Layer_1" data-name="Layer 1">
    <rect class="cls-2" width="1629.58" height="2585.55" rx="97" ry="97"/>
    <g>
      <rect class="cls-4" x="190.51" y="1630.84" width="270.81" height="107.75" rx="39" ry="39"/>
      <rect class="cls-4" x="1168.26" y="1630.84" width="270.81" height="107.75" rx="39" ry="39"/>
      <rect class="cls-4" x="516.43" y="1630.84" width="270.81" height="107.75" rx="39" ry="39"/>
      <rect class="cls-4" x="842.34" y="1630.84" width="270.81" height="107.75" rx="39" ry="39"/>
      <path class="cls-4" d="m96.4,1630.84H0v107.75h96.4c21.54,0,39-17.46,39-39v-29.75c0-21.54-17.46-39-39-39Z"/>
      <path class="cls-4" d="m1629.58,1630.84h-96.4c-21.54,0-39,17.46-39,39v29.75c0,21.54,17.46,39,39,39h96.4v-107.75Z"/>
    </g>
    <path class="cls-3" d="m171.75,327.8c0-74.18,60.18-134.36,134.36-134.36h268.73c74.18,0,134.36,60.18,134.36,134.36v268.73c0,74.18-60.18,134.36-134.36,134.36h-268.73c-74.18,0-134.36-60.18-134.36-134.36v-268.73Zm179.15,44.79v179.15h179.15v-179.15h-179.15Zm-179.15,671.82c0-74.18,60.18-134.36,134.36-134.36h268.73c74.18,0,134.36,60.18,134.36,134.36v268.73c0,74.18-60.18,134.36-134.36,134.36h-268.73c-74.18,0-134.36-60.18-134.36-134.36v-268.73Zm179.15,44.79v179.15h179.15v-179.15h-179.15ZM1022.73,193.43h268.73c74.18,0,134.36,60.18,134.36,134.36v268.73c0,74.18-60.18,134.36-134.36,134.36h-268.73c-74.18,0-134.36-60.18-134.36-134.36v-268.73c0-74.18,60.18-134.36,134.36-134.36Zm223.94,179.15h-179.15v179.15h179.15v-179.15Zm-358.31,582.25c0-24.63,20.15-44.79,44.79-44.79h179.15c24.63,0,44.79,20.15,44.79,44.79s20.15,44.79,44.79,44.79h89.58c24.63,0,44.79-20.15,44.79-44.79s20.15-44.79,44.79-44.79,44.79,20.15,44.79,44.79v268.73c0,24.63-20.15,44.79-44.79,44.79h-179.15c-24.63,0-44.79-20.15-44.79-44.79s-20.15-44.79-44.79-44.79-44.79,20.15-44.79,44.79v179.15c0,24.63-20.15,44.79-44.79,44.79h-89.58c-24.63,0-44.79-20.15-44.79-44.79v-447.88Zm313.52,492.67c-24.74,0-44.79-20.05-44.79-44.79s20.05-44.79,44.79-44.79,44.79,20.05,44.79,44.79-20.05,44.79-44.79,44.79Zm179.15,0c-24.74,0-44.79-20.05-44.79-44.79s20.05-44.79,44.79-44.79,44.79,20.05,44.79,44.79-20.05,44.79-44.79,44.79Z"/>
  </g>
</svg>