<?xml version="1.0" encoding="UTF-8"?>
<svg id="Layer_1" data-name="Layer 1" xmlns="http://www.w3.org/2000/svg" viewBox="0 0 3200 3200">
  <defs>
    <style>
      .cls-1 {
        fill: #27459d;
      }

      .cls-1, .cls-2, .cls-3 {
        stroke-width: 0px;
      }

      .cls-2 {
        fill: #d2eef8;
      }

      .cls-3 {
        fill: #fff;
      }
    </style>
  </defs>
  <rect class="cls-3" width="3200" height="3200"/>
  <g id="Layer_2" data-name="Layer 2">
    <g>
      <rect class="cls-2" x="1238.27" y="465.6" width="1669.58" height="2625.55" rx="117" ry="117"/>
      <path class="cls-1" d="M2790.84,485.6c53.57,0,97,43.43,97,97v2391.55c0,53.57-43.43,97-97,97h-1435.58c-53.57,0-97-43.43-97-97V582.6c0-53.57,43.43-97,97-97h1435.58M2790.84,445.6h-1435.58c-36.59,0-71,14.25-96.87,40.13-25.88,25.88-40.13,60.28-40.13,96.87v2391.55c0,36.59,14.25,71,40.13,96.87,25.88,25.88,60.28,40.13,96.87,40.13h1435.58c36.59,0,71-14.25,96.87-40.13,25.88-25.88,40.13-60.28,40.13-96.87V582.6c0-36.59-14.25-71-40.13-96.87-25.88-25.88-60.28-40.13-96.87-40.13h0Z"/>
    </g>
    <g>
      <rect class="cls-3" x="1448.78" y="2116.44" width="270.81" height="107.75" rx="39" ry="39"/>
      <rect class="cls-3" x="2426.53" y="2116.44" width="270.81" height="107.75" rx="39" ry="39"/>
      <rect class="cls-3" x="1774.7" y="2116.44" width="270.81" height="107.75" rx="39" ry="39"/>
      <rect class="cls-3" x="2100.6" y="2116.44" width="270.81" height="107.75" rx="39" ry="39"/>
      <path class="cls-3" d="M1354.67,2116.44h-96.4v107.75h96.4c21.54,0,39-17.46,39-39v-29.75c0-21.54-17.46-39-39-39h0Z"/>
      <path class="cls-3" d="M2887.84,2116.44h-96.4c-21.54,0-39,17.46-39,39v29.75c0,21.54,17.46,39,39,39h96.4v-107.75h0Z"/>
    </g>
    <path class="cls-1" d="M1518.9,767.64c-31.77,0-57.33,24.19-57.33,54.26v904.25c0,30.07,25.56,54.26,57.33,54.26h38.22c31.77,0,57.33-24.19,57.33-54.26v-904.25c0-30.07-25.56-54.26-57.33-54.26h-38.22ZM1729.09,767.64c-21.02,0-38.22,16.28-38.22,36.17v940.42c0,19.89,17.2,36.17,38.22,36.17s38.22-16.28,38.22-36.17v-940.42c0-19.89-17.2-36.17-38.22-36.17h0ZM1901.07,767.64c-31.77,0-57.33,24.19-57.33,54.26v904.25c0,30.07,25.56,54.26,57.33,54.26h38.22c31.77,0,57.33-24.19,57.33-54.26v-904.25c0-30.07-25.56-54.26-57.33-54.26h-38.22ZM2130.39,767.64c-31.77,0-57.33,24.19-57.33,54.26v904.25c0,30.07,25.56,54.26,57.33,54.26h38.22c31.77,0,57.33-24.19,57.33-54.26v-904.25c0-30.07-25.56-54.26-57.33-54.26h-38.22ZM2531.67,821.9v904.25c0,30.07,25.56,54.26,57.33,54.26h38.22c31.77,0,57.33-24.19,57.33-54.26v-904.25c0-30.07-25.56-54.26-57.33-54.26h-38.22c-31.77,0-57.33,24.19-57.33,54.26h0ZM2378.8,803.81v940.42c0,19.89,17.2,36.17,38.22,36.17s38.22-16.28,38.22-36.17v-940.42c0-19.89-17.2-36.17-38.22-36.17s-38.22,16.28-38.22,36.17h0Z"/>
  </g>
  <g id="Layer_1-2" data-name="Layer 1">
    <g>
      <rect class="cls-2" x="292.16" y="108.85" width="1669.58" height="2625.55" rx="117" ry="117"/>
      <path class="cls-1" d="M1844.73,128.84c53.57,0,97,43.43,97,97v2391.55c0,53.57-43.43,97-97,97H409.16c-53.57,0-97-43.43-97-97V225.84c0-53.57,43.43-97,97-97h1435.58M1844.73,88.84H409.16c-36.59,0-71,14.25-96.87,40.13-25.88,25.88-40.13,60.28-40.13,96.87v2391.55c0,36.59,14.25,71,40.13,96.87,25.88,25.88,60.28,40.13,96.87,40.13h1435.58c36.59,0,71-14.25,96.87-40.13,25.88-25.88,40.13-60.28,40.13-96.87V225.84c0-36.59-14.25-71-40.13-96.87-25.88-25.88-60.28-40.13-96.87-40.13h0Z"/>
    </g>
    <g>
      <rect class="cls-3" x="502.67" y="1759.68" width="270.81" height="107.75" rx="39" ry="39"/>
      <rect class="cls-3" x="1480.42" y="1759.68" width="270.81" height="107.75" rx="39" ry="39"/>
      <rect class="cls-3" x="828.59" y="1759.68" width="270.81" height="107.75" rx="39" ry="39"/>
      <rect class="cls-3" x="1154.5" y="1759.68" width="270.81" height="107.75" rx="39" ry="39"/>
      <path class="cls-3" d="M408.56,1759.68h-96.4v107.75h96.4c21.54,0,39-17.46,39-39v-29.75c0-21.54-17.46-39-39-39Z"/>
      <path class="cls-3" d="M1941.73,1759.68h-96.4c-21.54,0-39,17.46-39,39v29.75c0,21.54,17.46,39,39,39h96.4v-107.75Z"/>
    </g>
    <path class="cls-1" d="M483.91,456.64c0-74.18,60.18-134.36,134.36-134.36h268.73c74.18,0,134.36,60.18,134.36,134.36v268.73c0,74.18-60.18,134.36-134.36,134.36h-268.73c-74.18,0-134.36-60.18-134.36-134.36v-268.73h0ZM663.06,501.43v179.15h179.15v-179.15h-179.15ZM483.91,1173.26c0-74.18,60.18-134.36,134.36-134.36h268.73c74.18,0,134.36,60.18,134.36,134.36v268.73c0,74.18-60.18,134.36-134.36,134.36h-268.73c-74.18,0-134.36-60.18-134.36-134.36v-268.73h0ZM663.06,1218.05v179.15h179.15v-179.15h-179.15ZM1334.89,322.27h268.73c74.18,0,134.36,60.18,134.36,134.36v268.73c0,74.18-60.18,134.36-134.36,134.36h-268.73c-74.18,0-134.36-60.18-134.36-134.36v-268.73c0-74.18,60.18-134.36,134.36-134.36h0ZM1558.82,501.42h-179.15v179.15h179.15v-179.15ZM1200.51,1083.67c0-24.63,20.15-44.79,44.79-44.79h179.15c24.63,0,44.79,20.15,44.79,44.79s20.15,44.79,44.79,44.79h89.58c24.63,0,44.79-20.15,44.79-44.79s20.15-44.79,44.79-44.79,44.79,20.15,44.79,44.79v268.73c0,24.63-20.15,44.79-44.79,44.79h-179.15c-24.63,0-44.79-20.15-44.79-44.79s-20.15-44.79-44.79-44.79-44.79,20.15-44.79,44.79v179.15c0,24.63-20.15,44.79-44.79,44.79h-89.58c-24.63,0-44.79-20.15-44.79-44.79v-447.88ZM1514.03,1576.34c-24.74,0-44.79-20.05-44.79-44.79s20.05-44.79,44.79-44.79,44.79,20.05,44.79,44.79-20.05,44.79-44.79,44.79ZM1693.18,1576.34c-24.74,0-44.79-20.05-44.79-44.79s20.05-44.79,44.79-44.79,44.79,20.05,44.79,44.79-20.05,44.79-44.79,44.79Z"/>
  </g>
</svg>